#N canvas 100 241 1101 627 10;
#X obj 725 364 hsl 128 15 -127 127 0 1 empty empty empty -2 -8 0 10
-262144 -1 -1 6350 1;
#X text 28 11 DSP on olamli Sadece Audio settingsde input/output olarak
RP250 secili olmali (RP250 hardware yada plug in farketmiyor) Dosya
yok ise takiliyor \, ayni dosyayi calarken \, kaydetmeye calisirsan
yine takiliyor;
#X msg 744 329 set 0;
#X obj 734 302 loadbang;
#X floatatom 718 388 5 0 0 0 - - -, f 5;
#X obj 718 415 < 0;
#X obj 758 414 > 0;
#X obj 717 441 * -1;
#X floatatom 718 468 5 0 0 0 - - -, f 5;
#X floatatom 783 464 5 0 0 0 - - -, f 5;
#X text 709 258 playback sırasında otomatik pan için deneme;
#X obj 671 181 dac~;
#X obj 669 150 /~ 3;
#X obj 662 130 readsf~ 1;
#N canvas 74 244 1066 474 loop1 1;
#X obj 110 73 tgl 25 0 empty empty empty 17 7 0 25 -262144 -1 -1 0
1;
#X obj 458 283 *;
#X obj 506 279 samplerate~;
#X obj 458 259 t f b;
#N canvas 163 142 813 514 set 0;
#X obj 314 83 inlet;
#X obj 314 205 realtime;
#X obj 314 109 t b b;
#X obj 153 201 +;
#X obj 126 200 f;
#X msg 153 159 1;
#X obj 359 178 spigot;
#X obj 126 285 > 1;
#X obj 618 330 sel 1;
#X msg 126 159 0;
#X obj 642 195 metro 1;
#X obj 642 251 +;
#X obj 618 251 f;
#X msg 642 215 1;
#X msg 614 215 0;
#X obj 172 255 sel 1;
#X obj 642 170 tgl 15 0 empty empty empty 17 7 0 10 -262144 -1 -1 0
1;
#X obj 314 350 +;
#X obj 288 350 f;
#X obj 618 282 spigot;
#X obj 288 402 /;
#X obj 199 361 - 1;
#X obj 315 485 outlet;
#X obj 275 86 bng 15 250 50 0 empty empty empty 17 7 0 10 -262144 -1
-1;
#X floatatom 341 463 12 0 0 0 - - -, f 12;
#X obj 126 306 s TAP_not_first;
#X obj 392 156 r TAP_not_first;
#X obj 671 253 r TAP_not_first;
#X obj 172 277 s TAP_start;
#X obj 642 148 r TAP_start;
#X obj 288 439 sel 0;
#X obj 618 311 > 3000;
#X obj 618 351 s TAP_finish;
#X obj 614 125 r TAP_finish;
#X obj 126 136 r TAP_finish;
#X msg 288 329 0;
#X obj 288 306 r TAP_finish;
#X text 500 24 A timer gets triggered and reset every time;
#X text 499 38 the inlet receives a bang. If nothing happens;
#X text 498 53 afterwards for 3000 ms \, the "tempo" is considered
;
#X text 498 68 definitive \, and everything gets reset.;
#X text 498 90 comment;
#X text 12 189 Count the number;
#X text 12 201 of bangs received.;
#X text 385 199 Measure the time between;
#X text 385 212 two bangs (making sure that;
#X text 386 223 we only start measuring at;
#X text 386 235 the second bang).;
#X text 358 342 Sum the measured durations...;
#X text 336 403 ... and divide it by the number of bangs-1;
#X text 336 417 to get the average time between 2 bangs.;
#X text 558 490 Pierre Massat \, Guitar Extended \, 2013;
#X text 6 2 "Tap tempo" : we don't measure the tempo;
#X text 5 16 here \, but the duration between 2 beats (bangs).;
#X text 5 30 This is used later to set the length of the loop.;
#X connect 0 0 2 0;
#X connect 1 0 17 0;
#X connect 2 0 1 0;
#X connect 2 1 5 0;
#X connect 2 1 6 0;
#X connect 2 1 14 0;
#X connect 3 0 4 0;
#X connect 4 0 3 1;
#X connect 4 0 7 0;
#X connect 4 0 21 0;
#X connect 4 0 15 0;
#X connect 5 0 3 0;
#X connect 6 0 1 1;
#X connect 7 0 25 0;
#X connect 8 0 32 0;
#X connect 9 0 4 0;
#X connect 10 0 13 0;
#X connect 11 0 12 0;
#X connect 12 0 11 1;
#X connect 12 0 19 0;
#X connect 13 0 11 0;
#X connect 14 0 12 0;
#X connect 15 0 28 0;
#X connect 16 0 10 0;
#X connect 17 0 18 0;
#X connect 18 0 17 1;
#X connect 18 0 20 0;
#X connect 19 0 31 0;
#X connect 20 0 30 0;
#X connect 21 0 20 1;
#X connect 23 0 2 0;
#X connect 26 0 6 1;
#X connect 27 0 19 1;
#X connect 29 0 16 0;
#X connect 30 1 22 0;
#X connect 30 1 24 0;
#X connect 31 0 8 0;
#X connect 33 0 16 0;
#X connect 34 0 9 0;
#X connect 35 0 18 0;
#X connect 36 0 35 0;
#X restore 458 131 pd set tempo;
#X obj 458 193 * 4;
#X obj 458 99 bng 15 250 50 0 empty empty empty 17 7 0 10 -262144 -1
-1;
#X obj 458 237 / 1000;
#X obj 58 296 r~ main_out;
#X obj 58 327 +~;
#X obj 74 196 *~;
#X obj 110 178 line~;
#X obj 110 159 pack 0 5;
#X obj 480 393 r loop_on_off;
#X text 103 45 Record;
#N canvas 330 257 450 300 into_blocks 0;
#X obj 173 101 % 64;
#X obj 146 81 t f f;
#X obj 146 121 -;
#X obj 146 59 int;
#X obj 146 17 inlet;
#X obj 146 167 outlet;
#X text 238 67 to be a multiple of the block size.;
#X text 238 49 Force the length of the tables;
#X text 134 261 Pierre Massat \, Guitar extended \, 2013;
#X connect 0 0 2 1;
#X connect 1 0 2 0;
#X connect 1 1 0 0;
#X connect 2 0 5 0;
#X connect 3 0 1 0;
#X connect 4 0 3 0;
#X restore 458 305 pd into_blocks;
#X obj 458 330 s new_length;
#X obj 847 262 r new_length;
#X obj 559 549 spigot;
#X obj 480 453 sel 1 0;
#X msg 480 486 bang;
#X msg 514 485 stop;
#X obj 478 565 s~ main_out;
#X obj 847 332 r empty_table;
#X obj 775 122 t f f;
#X obj 775 166 s loop_on_off;
#X obj 480 433 t f f;
#X obj 579 528 s stop_looping;
#X obj 126 346 r stop_looping;
#X obj 559 578 s new_cycle;
#X obj 145 367 r new_cycle;
#X obj 58 399 tabwrite~ bande;
#X obj 478 527 tabplay~ bande;
#X obj 230 34 table bande;
#N canvas 185 178 431 372 limiter 0;
#X obj 24 22 inlet~;
#X msg 121 85 limit 100;
#X obj 121 21 loadbang;
#X obj 24 60 z~ 64;
#X obj 24 169 *~;
#X obj 24 200 outlet~;
#X obj 121 113 limiter~ 10;
#X connect 0 0 3 0;
#X connect 0 0 6 0;
#X connect 1 0 6 0;
#X connect 2 0 1 0;
#X connect 3 0 4 0;
#X connect 4 0 5 0;
#X connect 6 0 4 1;
#X restore 74 246 pd limiter;
#X obj 605 100 bng 15 250 50 0 empty empty empty 17 7 0 10 -262144
-1 -1;
#X obj 605 176 s empty_table;
#X text 446 56 Tempo;
#X obj 480 413 tgl 15 0 empty empty empty 17 7 0 10 -262144 -1 -1 0
1;
#X text 698 654 Pierre Massat \, Guitar Extended \, 2013;
#X text 562 473 Here we play the table (loop) continuously.;
#X text 39 432 This is where the recording happens.;
#X text 309 121 Get the duration between;
#X text 309 133 two beats...;
#X text 310 165 ... divide it by 4 (we;
#X text 310 178 assume that there are 4;
#X text 310 190 beats in a bar)...;
#X text 288 250 ...and compute the length;
#X text 288 264 of the table in samples \, as;
#X text 289 291 block size.;
#X text 289 279 a multiple of the;
#X obj 775 102 tgl 15 0 empty empty empty 17 7 0 10 -262144 -1 -1 0
1;
#X obj 74 126 adc~;
#X obj 366 592 dac~;
#X msg 449 393 1;
#X obj 605 120 t b b;
#X obj 605 143 del 2;
#X text 746 53 Audio On/Off;
#X text 595 56 Clear;
#X obj 449 369 r new_length;
#X obj 61 598 soundfiler;
#X obj 61 558 savepanel;
#X obj 61 540 bng 15 250 50 0 empty empty empty 17 7 0 10 -262144 -1
-1;
#X msg 61 578 write -wave \$1.wav bande;
#X text 27 502 And if you really happy with your loop \,;
#X text 27 516 save it as a .wav file !;
#N canvas 185 178 252 185 limiter 0;
#X obj 24 22 inlet~;
#X msg 121 85 limit 100;
#X obj 121 21 loadbang;
#X obj 24 60 z~ 64;
#X obj 24 169 *~;
#X obj 24 200 outlet~;
#X obj 121 113 limiter~ 10;
#X connect 0 0 3 0;
#X connect 0 0 6 0;
#X connect 1 0 6 0;
#X connect 2 0 1 0;
#X connect 3 0 4 0;
#X connect 4 0 5 0;
#X connect 6 0 4 1;
#X restore 365 568 pd limiter;
#X obj 802 147 switch~;
#N canvas 175 136 691 422 reverse 0;
#X obj 120 109 bng 15 250 50 0 empty empty Reverse_me 18 7 0 8 -262144
-1 -1;
#X obj 120 200 until;
#X obj 186 228 + 1;
#X obj 154 228 f;
#X obj 145 176 s \$1-length;
#X obj 323 335 table tempArray;
#X obj 120 152 t f f f;
#X obj 244 196 s tempArray;
#X msg 244 172 resize \$1;
#X obj 75 308 tabwrite tempArray;
#X obj 520 51 sel;
#X obj 596 41 - 1;
#X obj 596 17 r \$1-length;
#X obj 154 254 t f f f;
#X obj 67 278 s \$1-eof;
#X obj 520 18 r \$1-eof;
#X obj 520 123 until;
#X obj 520 98 f;
#X obj 520 156 f;
#X obj 552 156 - 1;
#X obj 571 103 r \$1-length;
#X obj 539 74 r \$1-length;
#X obj 520 208 tabread tempArray;
#X obj 584 255 f;
#X obj 603 231 r \$1-length;
#X obj 584 304 mod;
#X obj 603 279 r \$1-length;
#X obj 614 255 + 1;
#X obj 520 181 t f b;
#X obj 571 126 - 1;
#X text 53 335 Copies array to a temporary location.;
#X msg 337 124 0;
#X obj 337 148 s clr2;
#X obj 463 110 r clr2;
#X obj 173 200 r clr2;
#X obj 179 281 tabread bande;
#X obj 520 335 tabwrite bande;
#X obj 120 42 inlet;
#X obj 471 368 sel 0;
#X text 515 377 Bang when done copying;
#X obj 471 390 outlet;
#X text 206 396 (Taken and adapted from Pd's help);
#X obj 120 128 expr size("bande");
#X text 12 77 Arraysize yerine expr size("filename") koydum;
#X connect 0 0 31 0;
#X connect 0 0 42 0;
#X connect 1 0 3 0;
#X connect 2 0 3 1;
#X connect 3 0 2 0;
#X connect 3 0 13 0;
#X connect 6 0 1 0;
#X connect 6 1 4 0;
#X connect 6 2 8 0;
#X connect 8 0 7 0;
#X connect 10 0 17 0;
#X connect 11 0 10 1;
#X connect 12 0 11 0;
#X connect 13 0 14 0;
#X connect 13 1 35 0;
#X connect 13 2 9 1;
#X connect 15 0 10 0;
#X connect 16 0 18 0;
#X connect 17 0 16 0;
#X connect 18 0 19 0;
#X connect 18 0 28 0;
#X connect 19 0 18 1;
#X connect 20 0 29 0;
#X connect 21 0 17 1;
#X connect 22 0 36 0;
#X connect 23 0 25 0;
#X connect 23 0 27 0;
#X connect 24 0 23 1;
#X connect 25 0 36 1;
#X connect 26 0 25 1;
#X connect 27 0 23 1;
#X connect 28 0 22 0;
#X connect 28 0 38 0;
#X connect 28 1 23 0;
#X connect 29 0 18 1;
#X connect 31 0 32 0;
#X connect 33 0 18 1;
#X connect 34 0 3 1;
#X connect 35 0 9 0;
#X connect 37 0 0 0;
#X connect 38 0 40 0;
#X connect 42 0 6 0;
#X restore 893 560 pd reverse;
#X obj 893 497 bng 15 250 50 0 empty empty empty 17 7 0 10 -262144
-1 -1;
#X msg 847 354 \; bande const 0 \;;
#X msg 847 282 \; bande resize \$1 \;;
#X obj 893 518 t b b;
#X obj 366 548 *~;
#X obj 381 527 line~;
#X obj 381 507 pack 0 5;
#X msg 923 584 0;
#X obj 893 538 del 5;
#X msg 893 584 1;
#X obj 365 458 r~ main_out;
#X obj 893 612 s vol-output;
#X obj 381 486 r vol-output;
#X text 876 474 Reverse it !!!;
#X obj 751 188 s vol-output;
#X text 183 16 Grafik bunun icinde;
#X connect 0 0 12 0;
#X connect 1 0 15 0;
#X connect 2 0 1 1;
#X connect 3 0 1 0;
#X connect 3 1 2 0;
#X connect 4 0 5 0;
#X connect 5 0 7 0;
#X connect 6 0 4 0;
#X connect 7 0 3 0;
#X connect 8 0 9 0;
#X connect 9 0 31 0;
#X connect 10 0 34 0;
#X connect 11 0 10 1;
#X connect 12 0 11 0;
#X connect 13 0 38 0;
#X connect 15 0 16 0;
#X connect 17 0 71 0;
#X connect 18 0 29 0;
#X connect 18 0 32 0;
#X connect 19 0 20 0;
#X connect 19 1 21 0;
#X connect 20 0 29 0;
#X connect 20 0 32 0;
#X connect 21 0 27 0;
#X connect 21 0 32 0;
#X connect 23 0 70 0;
#X connect 24 0 25 0;
#X connect 24 0 83 0;
#X connect 24 1 67 0;
#X connect 26 0 19 0;
#X connect 26 1 18 1;
#X connect 28 0 31 0;
#X connect 30 0 31 0;
#X connect 32 0 22 0;
#X connect 32 1 18 0;
#X connect 34 0 9 1;
#X connect 35 0 55 0;
#X connect 38 0 26 0;
#X connect 51 0 24 0;
#X connect 52 0 10 0;
#X connect 54 0 38 0;
#X connect 55 0 56 0;
#X connect 55 1 36 0;
#X connect 56 0 36 0;
#X connect 59 0 54 0;
#X connect 61 0 63 0;
#X connect 62 0 61 0;
#X connect 63 0 60 0;
#X connect 66 0 53 0;
#X connect 66 0 53 1;
#X connect 68 0 78 0;
#X connect 69 0 72 0;
#X connect 72 0 77 0;
#X connect 72 1 76 0;
#X connect 73 0 66 0;
#X connect 74 0 73 1;
#X connect 75 0 74 0;
#X connect 76 0 80 0;
#X connect 77 0 68 0;
#X connect 78 0 80 0;
#X connect 79 0 73 0;
#X connect 81 0 75 0;
#X restore 49 209 pd loop1;
#X obj 50 80 loadbang;
#X obj 50 106 tgl 15 0 empty empty empty 17 7 0 10 -262144 -1 -1 1
1;
#X msg 50 133 \; pd dsp \$1;
#X text 44 191 Ilk kayit;
#N canvas 2 179 860 359 LEDs 0;
#X floatatom 22 134 5 0 0 0 - - -, f 5;
#X obj 22 112 tgl 15 0 empty led1 empty 17 7 0 10 -262144 -1 -1 0 1
;
#X floatatom 182 134 5 0 0 0 - - -, f 5;
#X obj 182 112 tgl 15 0 empty led2 empty 17 7 0 10 -262144 -1 -1 0
1;
#X obj 22 155 wiringPi_gpio 0 0 0;
#X obj 232 111 tgl 15 0 empty blin2 empty 17 7 0 10 -262144 -1 -1 0
1;
#X obj 232 131 metro 100;
#X obj 72 111 tgl 15 0 empty blink1 empty 17 7 0 10 -262144 -1 -1 0
1;
#X obj 72 131 metro 100;
#X floatatom 342 134 5 0 0 0 - - -, f 5;
#X obj 342 112 tgl 15 0 empty led3 empty 17 7 0 10 -262144 -1 -1 0
1;
#X floatatom 502 134 5 0 0 0 - - -, f 5;
#X obj 502 112 tgl 15 0 empty led4 empty 17 7 0 10 -262144 -1 -1 0
1;
#X obj 552 111 tgl 15 0 empty blink4 empty 17 7 0 10 -262144 -1 -1
0 1;
#X obj 552 131 metro 100;
#X obj 392 111 tgl 15 0 empty blink3 empty 17 7 0 10 -262144 -1 -1
0 1;
#X obj 392 131 metro 100;
#X floatatom 662 134 5 0 0 0 - - -, f 5;
#X obj 662 112 tgl 15 0 empty led5 empty 17 7 0 10 -262144 -1 -1 0
1;
#X obj 712 111 tgl 15 0 empty blink5 empty 17 7 0 10 -262144 -1 -1
0 1;
#X obj 712 131 metro 100;
#X floatatom 22 274 5 0 0 0 - - -, f 5;
#X obj 22 252 tgl 15 0 empty led6 empty 17 7 0 10 -262144 -1 -1 0 1
;
#X floatatom 182 274 5 0 0 0 - - -, f 5;
#X obj 182 252 tgl 15 0 empty led7 empty 17 7 0 10 -262144 -1 -1 0
1;
#X obj 232 251 tgl 15 0 empty blink7 empty 17 7 0 10 -262144 -1 -1
0 1;
#X obj 232 271 metro 100;
#X obj 72 251 tgl 15 0 empty blink6 empty 17 7 0 10 -262144 -1 -1 0
1;
#X obj 72 271 metro 100;
#X floatatom 342 274 5 0 0 0 - - -, f 5;
#X obj 342 252 tgl 15 0 empty led8 empty 17 7 0 10 -262144 -1 -1 0
1;
#X floatatom 502 274 5 0 0 0 - - -, f 5;
#X obj 502 252 tgl 15 0 empty led9 empty 17 7 0 10 -262144 -1 -1 0
1;
#X obj 552 251 tgl 15 0 empty blink9 empty 17 7 0 10 -262144 -1 -1
0 1;
#X obj 552 271 metro 100;
#X obj 392 251 tgl 15 0 empty blink8 empty 17 7 0 10 -262144 -1 -1
0 1;
#X obj 392 271 metro 100;
#X floatatom 662 274 5 0 0 0 - - -, f 5;
#X obj 662 252 tgl 15 0 empty led10 empty 17 7 0 10 -262144 -1 -1 0
1;
#X obj 712 251 tgl 15 0 empty blink10 empty 17 7 0 10 -262144 -1 -1
0 1;
#X obj 182 155 wiringPi_gpio 1 0 0;
#X obj 342 155 wiringPi_gpio 2 0 0;
#X obj 502 155 wiringPi_gpio 3 0 0;
#X obj 662 155 wiringPi_gpio 4 0 0;
#X obj 22 295 wiringPi_gpio 5 0 0;
#X obj 182 295 wiringPi_gpio 6 0 0;
#X obj 342 295 wiringPi_gpio 7 0 0;
#X obj 502 295 wiringPi_gpio 11 0 0;
#X obj 662 295 wiringPi_gpio 15 0 0;
#X obj 712 271 metro 100;
#X obj 752 251 bng 15 250 50 0 empty empty empty 17 7 0 10 -262144
-1 -1;
#X obj 752 208 bng 15 250 50 0 empty tek10 empty 17 7 0 10 -262144
-1 -1;
#X obj 752 229 del 400;
#X obj 592 251 bng 15 250 50 0 empty empty empty 17 7 0 10 -262144
-1 -1;
#X obj 592 208 bng 15 250 50 0 empty tek9 empty 17 7 0 10 -262144 -1
-1;
#X obj 592 229 del 400;
#X obj 432 251 bng 15 250 50 0 empty empty empty 17 7 0 10 -262144
-1 -1;
#X obj 432 208 bng 15 250 50 0 empty tek8 empty 17 7 0 10 -262144 -1
-1;
#X obj 432 229 del 400;
#X obj 272 251 bng 15 250 50 0 empty empty empty 17 7 0 10 -262144
-1 -1;
#X obj 272 208 bng 15 250 50 0 empty tek7 empty 17 7 0 10 -262144 -1
-1;
#X obj 272 229 del 400;
#X obj 112 251 bng 15 250 50 0 empty empty empty 17 7 0 10 -262144
-1 -1;
#X obj 112 208 bng 15 250 50 0 empty tek6 empty 17 7 0 10 -262144 -1
-1;
#X obj 112 229 del 400;
#X obj 662 112 tgl 15 0 empty empty empty 17 7 0 10 -262144 -1 -1 0
1;
#X obj 752 111 bng 15 250 50 0 empty empty empty 17 7 0 10 -262144
-1 -1;
#X obj 752 68 bng 15 250 50 0 empty tek5 empty 17 7 0 10 -262144 -1
-1;
#X obj 752 89 del 400;
#X obj 592 111 bng 15 250 50 0 empty empty empty 17 7 0 10 -262144
-1 -1;
#X obj 592 68 bng 15 250 50 0 empty tek4 empty 17 7 0 10 -262144 -1
-1;
#X obj 592 89 del 400;
#X obj 432 111 bng 15 250 50 0 empty empty empty 17 7 0 10 -262144
-1 -1;
#X obj 432 68 bng 15 250 50 0 empty tek3 empty 17 7 0 10 -262144 -1
-1;
#X obj 432 89 del 400;
#X obj 272 111 bng 15 250 50 0 empty empty empty 17 7 0 10 -262144
-1 -1;
#X obj 272 68 bng 15 250 50 0 empty tek2 empty 17 7 0 10 -262144 -1
-1;
#X obj 272 89 del 400;
#X obj 112 111 bng 15 250 50 0 empty empty empty 17 7 0 10 -262144
-1 -1;
#X obj 112 68 bng 15 250 50 0 empty tek1 empty 17 7 0 10 -262144 -1
-1;
#X obj 112 89 del 400;
#X text 17 14 OUTPUT mode \, [Pin No / Mode(0=output \, 1=input) /
default value (on yada off)] Pin no Wiring Pi tanimina gore. 0...7
\, 11 ve 15 Pinler \, 10 adet LED için output tanimlandi. Sirasiyla
[led1 \, blink1 \, tek1 --> surekli \, blink \, 2 kez yak] LED1 icin
fonksiyonlarproperties icinde trigger tanimlandi, f 110;
#X connect 0 0 4 0;
#X connect 1 0 0 0;
#X connect 2 0 40 0;
#X connect 3 0 2 0;
#X connect 5 0 6 0;
#X connect 5 0 3 0;
#X connect 6 0 3 0;
#X connect 7 0 8 0;
#X connect 7 0 1 0;
#X connect 8 0 1 0;
#X connect 9 0 41 0;
#X connect 10 0 9 0;
#X connect 11 0 42 0;
#X connect 12 0 11 0;
#X connect 13 0 14 0;
#X connect 13 0 12 0;
#X connect 14 0 12 0;
#X connect 15 0 16 0;
#X connect 15 0 10 0;
#X connect 16 0 10 0;
#X connect 17 0 43 0;
#X connect 18 0 17 0;
#X connect 19 0 20 0;
#X connect 19 0 18 0;
#X connect 20 0 18 0;
#X connect 21 0 44 0;
#X connect 22 0 21 0;
#X connect 23 0 45 0;
#X connect 24 0 23 0;
#X connect 25 0 26 0;
#X connect 25 0 24 0;
#X connect 26 0 24 0;
#X connect 27 0 28 0;
#X connect 27 0 22 0;
#X connect 28 0 22 0;
#X connect 29 0 46 0;
#X connect 30 0 29 0;
#X connect 31 0 47 0;
#X connect 32 0 31 0;
#X connect 33 0 34 0;
#X connect 33 0 32 0;
#X connect 34 0 32 0;
#X connect 35 0 36 0;
#X connect 35 0 30 0;
#X connect 36 0 30 0;
#X connect 37 0 48 0;
#X connect 38 0 37 0;
#X connect 39 0 49 0;
#X connect 39 0 38 0;
#X connect 49 0 38 0;
#X connect 50 0 39 0;
#X connect 51 0 39 0;
#X connect 51 0 52 0;
#X connect 52 0 50 0;
#X connect 53 0 33 0;
#X connect 54 0 55 0;
#X connect 54 0 33 0;
#X connect 55 0 53 0;
#X connect 56 0 35 0;
#X connect 57 0 58 0;
#X connect 57 0 35 0;
#X connect 58 0 56 0;
#X connect 59 0 25 0;
#X connect 60 0 61 0;
#X connect 60 0 25 0;
#X connect 61 0 59 0;
#X connect 62 0 27 0;
#X connect 63 0 64 0;
#X connect 63 0 27 0;
#X connect 64 0 62 0;
#X connect 66 0 19 0;
#X connect 67 0 68 0;
#X connect 67 0 19 0;
#X connect 68 0 66 0;
#X connect 69 0 13 0;
#X connect 70 0 71 0;
#X connect 70 0 13 0;
#X connect 71 0 69 0;
#X connect 72 0 15 0;
#X connect 73 0 74 0;
#X connect 73 0 15 0;
#X connect 74 0 72 0;
#X connect 75 0 5 0;
#X connect 76 0 77 0;
#X connect 76 0 5 0;
#X connect 77 0 75 0;
#X connect 78 0 7 0;
#X connect 79 0 80 0;
#X connect 79 0 7 0;
#X connect 80 0 78 0;
#X restore 123 306 pd LEDs;
#N canvas 369 154 845 482 BUTTONs 0;
#X floatatom 20 183 5 0 0 0 - - -, f 5;
#X obj 20 117 bng 15 250 50 0 empty empty empty 17 7 0 10 -262144 -1
-1;
#X obj 49 118 tgl 15 0 empty empty empty 17 7 0 10 -262144 -1 -1 1
1;
#X obj 49 138 metro 20;
#X obj 232 75 loadbang;
#X floatatom 170 183 5 0 0 0 - - -, f 5;
#X obj 199 118 tgl 15 0 empty empty empty 17 7 0 10 -262144 -1 -1 1
1;
#X obj 199 138 metro 20;
#X floatatom 320 183 5 0 0 0 - - -, f 5;
#X obj 349 118 tgl 15 0 empty empty empty 17 7 0 10 -262144 -1 -1 1
1;
#X obj 349 138 metro 20;
#X floatatom 470 183 5 0 0 0 - - -, f 5;
#X obj 499 118 tgl 15 0 empty empty empty 17 7 0 10 -262144 -1 -1 1
1;
#X obj 499 138 metro 20;
#X floatatom 620 183 5 0 0 0 - - -, f 5;
#X obj 649 118 tgl 15 0 empty empty empty 17 7 0 10 -262144 -1 -1 1
1;
#X obj 649 138 metro 20;
#X floatatom 20 393 5 0 0 0 - - -, f 5;
#X obj 20 327 bng 15 250 50 0 empty empty empty 17 7 0 10 -262144 -1
-1;
#X obj 49 328 tgl 15 0 empty empty empty 17 7 0 10 -262144 -1 -1 1
1;
#X obj 49 348 metro 20;
#X obj 232 285 loadbang;
#X floatatom 170 393 5 0 0 0 - - -, f 5;
#X obj 199 328 tgl 15 0 empty empty empty 17 7 0 10 -262144 -1 -1 1
1;
#X obj 199 348 metro 20;
#X floatatom 320 393 5 0 0 0 - - -, f 5;
#X obj 349 328 tgl 15 0 empty empty empty 17 7 0 10 -262144 -1 -1 1
1;
#X obj 349 348 metro 20;
#X floatatom 470 393 5 0 0 0 - - -, f 5;
#X obj 499 328 tgl 15 0 empty empty empty 17 7 0 10 -262144 -1 -1 1
1;
#X obj 499 348 metro 20;
#X floatatom 620 393 5 0 0 0 - - -, f 5;
#X obj 649 328 tgl 15 0 empty empty empty 17 7 0 10 -262144 -1 -1 1
1;
#X obj 649 348 metro 20;
#X obj 20 161 wiringPi_gpio 21 1 0;
#X obj 170 161 wiringPi_gpio 22 1 0;
#X obj 620 371 wiringPi_gpio 16 1 0;
#X obj 320 161 wiringPi_gpio 23 1 0;
#X obj 470 161 wiringPi_gpio 24 1 0;
#X obj 620 161 wiringPi_gpio 25 1 0;
#X obj 470 371 wiringPi_gpio 29 1 0;
#X obj 320 371 wiringPi_gpio 28 1 0;
#X obj 170 371 wiringPi_gpio 27 1 0;
#X obj 20 371 wiringPi_gpio 26 1 0;
#X obj 20 247 outlet;
#X obj 170 247 outlet;
#X obj 320 247 outlet;
#X obj 470 247 outlet;
#X obj 620 247 outlet;
#X obj 20 459 outlet;
#X obj 170 459 outlet;
#X obj 320 459 outlet;
#X obj 470 459 outlet;
#X obj 620 459 outlet;
#X text 16 2 In INPUT mode \, bang the object to see value on the pin
Pin no Wiring Pi tanimina gore. 21...29 ve 16 Pinler \, 10 adet BUTTON
için input tanimlandi * DIKKAT Nedense Pin bazi pinler aclista PullUp
olmuyor \, 0 gozukuyor bunu CMD da [gpio mode 23 up] komutu girerek
pull up yapabilirsin 23 WringPi no. Kontak verince 0 oluyor., f 111
;
#X obj 20 201 change;
#X obj 20 224 sel 0;
#X obj 170 201 change;
#X obj 170 224 sel 0;
#X obj 320 201 change;
#X obj 320 224 sel 0;
#X obj 470 201 change;
#X obj 470 224 sel 0;
#X obj 620 201 change;
#X obj 620 224 sel 0;
#X obj 20 413 change;
#X obj 20 436 sel 0;
#X obj 170 413 change;
#X obj 170 436 sel 0;
#X obj 320 413 change;
#X obj 320 436 sel 0;
#X obj 470 413 change;
#X obj 470 436 sel 0;
#X obj 620 413 change;
#X obj 620 436 sel 0;
#X connect 0 0 55 0;
#X connect 1 0 34 0;
#X connect 2 0 3 0;
#X connect 3 0 34 0;
#X connect 4 0 2 0;
#X connect 4 0 6 0;
#X connect 4 0 9 0;
#X connect 4 0 12 0;
#X connect 4 0 15 0;
#X connect 5 0 57 0;
#X connect 6 0 7 0;
#X connect 7 0 35 0;
#X connect 8 0 59 0;
#X connect 9 0 10 0;
#X connect 10 0 37 0;
#X connect 11 0 61 0;
#X connect 12 0 13 0;
#X connect 13 0 38 0;
#X connect 14 0 63 0;
#X connect 15 0 16 0;
#X connect 16 0 39 0;
#X connect 17 0 65 0;
#X connect 18 0 43 0;
#X connect 19 0 20 0;
#X connect 20 0 43 0;
#X connect 21 0 19 0;
#X connect 21 0 23 0;
#X connect 21 0 26 0;
#X connect 21 0 29 0;
#X connect 21 0 32 0;
#X connect 22 0 67 0;
#X connect 23 0 24 0;
#X connect 24 0 42 0;
#X connect 25 0 69 0;
#X connect 26 0 27 0;
#X connect 27 0 41 0;
#X connect 28 0 71 0;
#X connect 29 0 30 0;
#X connect 30 0 40 0;
#X connect 31 0 73 0;
#X connect 32 0 33 0;
#X connect 33 0 36 0;
#X connect 34 0 0 0;
#X connect 35 0 5 0;
#X connect 36 0 31 0;
#X connect 37 0 8 0;
#X connect 38 0 11 0;
#X connect 39 0 14 0;
#X connect 40 0 28 0;
#X connect 41 0 25 0;
#X connect 42 0 22 0;
#X connect 43 0 17 0;
#X connect 55 0 56 0;
#X connect 56 0 44 0;
#X connect 57 0 58 0;
#X connect 58 0 45 0;
#X connect 59 0 60 0;
#X connect 60 0 46 0;
#X connect 61 0 62 0;
#X connect 62 0 47 0;
#X connect 63 0 64 0;
#X connect 64 0 48 0;
#X connect 65 0 66 0;
#X connect 66 0 49 0;
#X connect 67 0 68 0;
#X connect 68 0 50 0;
#X connect 69 0 70 0;
#X connect 70 0 51 0;
#X connect 71 0 72 0;
#X connect 72 0 52 0;
#X connect 73 0 74 0;
#X connect 74 0 53 0;
#X restore 295 260 pd BUTTONs;
#N canvas 349 245 673 467 POTs 0;
#X obj 51 45 tgl 15 0 empty empty empty 17 7 0 10 -262144 -1 -1 1 1
;
#X msg 101 102 setup_wiringPi;
#X obj 50 163 unpack f f f f f f f f;
#X obj 50 135 wiringPi_mcp3008 0 8;
#X obj 101 28 loadbang;
#X floatatom 14 208 5 0 0 0 - - -, f 5;
#X floatatom 52 185 5 0 0 0 - - -, f 5;
#X floatatom 90 208 5 0 0 0 - - -, f 5;
#X floatatom 128 185 5 0 0 0 - - -, f 5;
#X floatatom 166 208 5 0 0 0 - - -, f 5;
#X floatatom 204 185 5 0 0 0 - - -, f 5;
#X floatatom 242 208 5 0 0 0 - - -, f 5;
#X floatatom 280 185 5 0 0 0 - - -, f 5;
#X text 112 65 Okuma hizi;
#X text 222 103 Sadece 1 kez setup gerekli yoksa cakiliyor;
#X text 374 137 args are (spi_port \, No. of ADCs to read). Once you
run setup_wiringPi you can't change these numbers or it'll crash when
you run the setup message again. *, f 27;
#X text 379 238 For this object to work you must have wiringPi installed
in your pi \, then run "sudo gpio load spi". Raspi Configden (StartX
altinda) SPI enable etmen yetiyor, f 26;
#X obj 50 66 metro 10;
#X obj 280 273 int;
#X obj 242 274 int;
#X obj 280 233 / 8;
#X obj 242 233 / 8;
#X floatatom 280 304 5 0 0 0 - - pot8, f 5;
#X floatatom 242 304 5 0 0 0 - - pot7, f 5;
#X obj 204 273 int;
#X obj 166 274 int;
#X obj 204 233 / 8;
#X obj 166 233 / 8;
#X floatatom 204 304 5 0 0 0 - - pot6, f 5;
#X floatatom 166 304 5 0 0 0 - - pot5, f 5;
#X obj 128 273 int;
#X obj 90 274 int;
#X obj 128 233 / 8;
#X obj 90 233 / 8;
#X floatatom 128 304 5 0 0 0 - - pot4, f 5;
#X floatatom 90 304 5 0 0 0 - - pot3, f 5;
#X obj 52 273 int;
#X obj 14 274 int;
#X obj 52 233 / 8;
#X obj 14 233 / 8;
#X floatatom 52 304 5 0 0 0 - - pot2, f 5;
#X floatatom 14 304 5 0 0 0 - - pot1, f 5;
#X text 2 363 Value icinde properties send symbol pot1-pot8;
#X connect 0 0 17 0;
#X connect 1 0 3 0;
#X connect 2 0 5 0;
#X connect 2 1 6 0;
#X connect 2 2 7 0;
#X connect 2 3 8 0;
#X connect 2 4 9 0;
#X connect 2 5 10 0;
#X connect 2 6 11 0;
#X connect 2 7 12 0;
#X connect 3 0 2 0;
#X connect 4 0 0 0;
#X connect 4 0 1 0;
#X connect 5 0 39 0;
#X connect 6 0 38 0;
#X connect 7 0 33 0;
#X connect 8 0 32 0;
#X connect 9 0 27 0;
#X connect 10 0 26 0;
#X connect 11 0 21 0;
#X connect 12 0 20 0;
#X connect 17 0 3 0;
#X connect 18 0 22 0;
#X connect 19 0 23 0;
#X connect 20 0 18 0;
#X connect 21 0 19 0;
#X connect 24 0 28 0;
#X connect 25 0 29 0;
#X connect 26 0 24 0;
#X connect 27 0 25 0;
#X connect 30 0 34 0;
#X connect 31 0 35 0;
#X connect 32 0 30 0;
#X connect 33 0 31 0;
#X connect 36 0 40 0;
#X connect 37 0 41 0;
#X connect 38 0 36 0;
#X connect 39 0 37 0;
#X restore 121 260 pd POTs;
#X obj 282 328 bng 15 250 50 0 btn1 empty empty 17 7 0 10 -262144 -1
-1;
#X obj 302 328 bng 15 250 50 0 btn2 empty empty 17 7 0 10 -262144 -1
-1;
#X obj 322 328 bng 15 250 50 0 btn3 empty empty 17 7 0 10 -262144 -1
-1;
#X obj 342 328 bng 15 250 50 0 btn4 empty empty 17 7 0 10 -262144 -1
-1;
#X obj 362 328 bng 15 250 50 0 btn5 empty empty 17 7 0 10 -262144 -1
-1;
#X obj 282 298 bng 15 250 50 0 btn6 empty empty 17 7 0 10 -262144 -1
-1;
#X obj 302 298 bng 15 250 50 0 btn7 empty empty 17 7 0 10 -262144 -1
-1;
#X obj 322 298 bng 15 250 50 0 btn8 empty empty 17 7 0 10 -262144 -1
-1;
#X obj 342 298 bng 15 250 50 0 btn9 empty empty 17 7 0 10 -262144 -1
-1;
#X obj 362 298 bng 15 250 50 0 btn10 empty empty 17 7 0 10 -262144
-1 -1;
#X text 382 329 btn1-btn5;
#X text 382 299 btn6-btn10;
#N canvas 2 131 1038 502 loop2 0;
#X msg 43 165 stop;
#X obj 21 211 adc~;
#X obj 22 248 *~ 1;
#X obj 43 95 tgl 15 0 empty empty empty 17 7 0 10 -262144 -1 -1 0 1
;
#X obj 43 117 select 0 1;
#X obj 43 139 bng 15 250 50 0 empty empty empty 17 7 0 10 -262144 -1
-1;
#X obj 76 139 bng 15 250 50 0 empty empty empty 17 7 0 10 -262144 -1
-1;
#X text 64 89 Record Start Stop;
#X obj 62 248 *~ 1;
#X obj 13 331 vu 15 120 empty empty -1 -8 0 10 -66577 -1 1 0;
#X obj 65 412 env~;
#X obj 65 436 - 100;
#X obj 123 331 vu 15 120 empty empty -1 -8 0 10 -66577 -1 1 0;
#X obj 75 352 env~;
#X obj 75 376 - 100;
#X text 199 292 Record two channel audio;
#X obj 112 291 writesf~ 2;
#X text 137 233 Record 32 Bit quality;
#X msg 678 171 stop;
#X obj 616 439 dac~;
#X obj 700 234 bng 15 250 50 0 empty empty empty 17 7 0 10 -262144
-1 -1;
#X obj 737 258 spigot;
#X obj 883 233 tgl 15 0 empty empty empty 17 7 0 10 -262144 -1 -1 0
1;
#X obj 792 139 select 0 1;
#X obj 792 161 bng 15 250 50 0 empty empty empty 17 7 0 10 -262144
-1 -1;
#X obj 825 161 bng 15 250 50 0 empty empty empty 17 7 0 10 -262144
-1 -1;
#X obj 517 336 hsl 128 15 0 127 0 1 empty empty empty -2 -8 0 10 -262144
-1 -1 0 1;
#X obj 676 336 hsl 128 15 0 127 0 1 empty empty empty -2 -8 0 10 -262144
-1 -1 0 1;
#X obj 514 132 loadbang;
#X obj 463 331 vu 15 120 empty empty -1 -8 0 10 -66577 -1 1 0;
#X msg 514 229 set 127;
#X obj 514 364 *~;
#X obj 655 365 *~;
#X obj 636 256 /~ 127;
#X obj 539 260 /~ 127;
#X obj 515 412 env~;
#X obj 515 436 - 100;
#X obj 817 331 vu 15 120 empty empty -1 -8 0 10 -66577 -1 1 0;
#X obj 739 412 env~;
#X obj 739 436 - 100;
#X text 904 234 Loop Start Stop;
#X text 695 216 End of file trigger;
#X obj 676 305 hsl 128 15 0 127 0 1 empty pot4 empty -2 -8 0 10 -262144
-1 -1 0 1;
#X obj 608 212 readsf~ 2;
#X obj 43 23 bng 15 250 50 0 empty btn7 empty 17 7 0 10 -262144 -1
-1;
#X text 244 93 Prevent playback during record;
#X obj 883 23 bng 15 250 50 0 empty btn2 empty 17 7 0 10 -262144 -1
-1;
#X obj 357 140 bng 15 250 50 0 blink7 empty empty 17 7 0 10 -262144
-1 -1;
#X obj 883 272 bng 15 250 50 0 led2 empty empty 17 7 0 10 -262144 -1
-1;
#X text 155 120 Max 30 sec record;
#X obj 357 110 tgl 15 0 empty empty empty 17 7 0 10 -262144 -1 -1 0
1;
#X obj 883 85 spigot;
#X obj 720 61 == 0;
#X obj 43 58 spigot;
#X text 696 81 Invert (if=0?);
#X obj 167 59 == 0;
#X text 161 41 Invert;
#X text 244 46 Prevent record during playback;
#X obj 165 181 spigot;
#X text 216 178 Reset if not stopped;
#X obj 165 139 del 30000;
#X msg 112 248 open -bytes 4 loop2.wav \, start;
#X msg 651 107 open loop2.wav \, start;
#X obj 284 62 r playing2;
#X obj 936 272 s playing2;
#X text 311 157 Recording Led (blink7);
#X text 829 289 Playing Led (led2);
#X text 594 22 Button input (properties receive btn2);
#X text 64 22 Button input (properties receive btn7);
#X text 670 287 Playback Level(pot4);
#X obj 474 10 loadbang;
#X connect 0 0 16 0;
#X connect 1 0 2 0;
#X connect 1 1 8 0;
#X connect 2 0 10 0;
#X connect 2 0 16 0;
#X connect 3 0 4 0;
#X connect 3 0 50 0;
#X connect 3 0 58 1;
#X connect 4 0 5 0;
#X connect 4 1 6 0;
#X connect 5 0 0 0;
#X connect 6 0 61 0;
#X connect 6 0 60 0;
#X connect 8 0 13 0;
#X connect 8 0 16 1;
#X connect 10 0 11 0;
#X connect 11 0 9 0;
#X connect 13 0 14 0;
#X connect 14 0 12 0;
#X connect 18 0 43 0;
#X connect 20 0 21 0;
#X connect 21 0 62 0;
#X connect 22 0 21 1;
#X connect 22 0 23 0;
#X connect 22 0 48 0;
#X connect 22 0 64 0;
#X connect 23 0 24 0;
#X connect 23 1 25 0;
#X connect 24 0 18 0;
#X connect 25 0 62 0;
#X connect 26 0 31 1;
#X connect 27 0 32 1;
#X connect 28 0 30 0;
#X connect 30 0 27 0;
#X connect 30 0 26 0;
#X connect 30 0 42 0;
#X connect 31 0 19 0;
#X connect 31 0 35 0;
#X connect 32 0 19 1;
#X connect 32 0 38 0;
#X connect 33 0 32 0;
#X connect 34 0 31 0;
#X connect 35 0 36 0;
#X connect 36 0 29 0;
#X connect 38 0 39 0;
#X connect 39 0 37 0;
#X connect 42 0 27 0;
#X connect 42 0 26 0;
#X connect 43 0 34 0;
#X connect 43 1 33 0;
#X connect 43 2 20 0;
#X connect 44 0 53 0;
#X connect 46 0 51 0;
#X connect 50 0 47 0;
#X connect 50 0 52 0;
#X connect 51 0 22 0;
#X connect 52 0 51 1;
#X connect 53 0 3 0;
#X connect 55 0 53 1;
#X connect 58 0 3 0;
#X connect 60 0 58 0;
#X connect 61 0 16 0;
#X connect 62 0 43 0;
#X connect 63 0 55 0;
#X connect 70 0 52 0;
#X connect 70 0 55 0;
#X restore 154 209 pd loop2;
#X text 154 191 2 kayit;
#X msg 576 21 open ../Desktop/Speach/Sibel.wav \, start;
#X msg 595 40 open ../Desktop/Speach/CenkSibeliCokSeviyor.wav \, start
;
#X msg 622 58 open ../Desktop/Speach/KullaniciBaglandi.wav \, start
;
#X msg 641 77 open ../Desktop/Speach/Verisyon.wav \, start;
#X msg 659 96 open ../Desktop/Speach/OramaBuramaManasizcaDokunma.wav
\, start;
#N canvas 539 302 450 300 startup_LED_test 0;
#X obj 26 23 loadbang;
#X obj 26 60 delay 2000;
#X obj 95 23 bng 15 250 50 0 empty empty empty 17 7 0 10 -262144 -1
-1;
#X obj 26 89 bng 15 250 50 0 led1 empty empty 17 7 0 10 -262144 -1
-1;
#X obj 106 89 bng 15 250 50 0 led2 empty empty 17 7 0 10 -262144 -1
-1;
#X obj 186 89 bng 15 250 50 0 led3 empty empty 17 7 0 10 -262144 -1
-1;
#X obj 266 89 bng 15 250 50 0 led4 empty empty 17 7 0 10 -262144 -1
-1;
#X obj 346 89 bng 15 250 50 0 led5 empty empty 17 7 0 10 -262144 -1
-1;
#X obj 26 109 bng 15 250 50 0 led10 empty empty 17 7 0 10 -262144 -1
-1;
#X obj 106 109 bng 15 250 50 0 led9 empty empty 17 7 0 10 -262144 -1
-1;
#X obj 186 109 bng 15 250 50 0 led8 empty empty 17 7 0 10 -262144 -1
-1;
#X obj 266 109 bng 15 250 50 0 led7 empty empty 17 7 0 10 -262144 -1
-1;
#X obj 346 109 bng 15 250 50 0 led6 empty empty 17 7 0 10 -262144 -1
-1;
#X obj 106 60 delay 100;
#X obj 186 60 delay 100;
#X obj 266 60 delay 100;
#X obj 346 60 delay 100;
#X obj 26 140 delay 2000;
#X obj 26 169 bng 15 250 50 0 led1 empty empty 17 7 0 10 -262144 -1
-1;
#X obj 106 169 bng 15 250 50 0 led2 empty empty 17 7 0 10 -262144 -1
-1;
#X obj 186 169 bng 15 250 50 0 led3 empty empty 17 7 0 10 -262144 -1
-1;
#X obj 266 169 bng 15 250 50 0 led4 empty empty 17 7 0 10 -262144 -1
-1;
#X obj 346 169 bng 15 250 50 0 led5 empty empty 17 7 0 10 -262144 -1
-1;
#X obj 26 189 bng 15 250 50 0 led10 empty empty 17 7 0 10 -262144 -1
-1;
#X obj 106 189 bng 15 250 50 0 led9 empty empty 17 7 0 10 -262144 -1
-1;
#X obj 186 189 bng 15 250 50 0 led8 empty empty 17 7 0 10 -262144 -1
-1;
#X obj 266 189 bng 15 250 50 0 led7 empty empty 17 7 0 10 -262144 -1
-1;
#X obj 346 189 bng 15 250 50 0 led6 empty empty 17 7 0 10 -262144 -1
-1;
#X obj 106 140 delay 100;
#X obj 186 140 delay 100;
#X obj 266 140 delay 100;
#X obj 346 140 delay 100;
#X connect 0 0 1 0;
#X connect 1 0 3 0;
#X connect 2 0 1 0;
#X connect 3 0 8 0;
#X connect 3 0 13 0;
#X connect 4 0 9 0;
#X connect 4 0 14 0;
#X connect 5 0 10 0;
#X connect 5 0 15 0;
#X connect 6 0 11 0;
#X connect 6 0 16 0;
#X connect 7 0 12 0;
#X connect 12 0 17 0;
#X connect 13 0 4 0;
#X connect 14 0 5 0;
#X connect 15 0 6 0;
#X connect 16 0 7 0;
#X connect 17 0 18 0;
#X connect 18 0 23 0;
#X connect 18 0 28 0;
#X connect 19 0 24 0;
#X connect 19 0 29 0;
#X connect 20 0 25 0;
#X connect 20 0 30 0;
#X connect 21 0 26 0;
#X connect 21 0 31 0;
#X connect 22 0 27 0;
#X connect 28 0 19 0;
#X connect 29 0 20 0;
#X connect 30 0 21 0;
#X connect 31 0 22 0;
#X restore 127 362 pd startup_LED_test;
#X connect 0 0 4 0;
#X connect 2 0 0 0;
#X connect 3 0 2 0;
#X connect 4 0 5 0;
#X connect 4 0 6 0;
#X connect 5 0 7 0;
#X connect 6 0 9 0;
#X connect 7 0 8 0;
#X connect 12 0 11 0;
#X connect 12 0 11 1;
#X connect 13 0 12 0;
#X connect 15 0 16 0;
#X connect 16 0 17 0;
#X connect 20 0 27 0;
#X connect 20 1 22 0;
#X connect 20 2 28 0;
#X connect 20 3 23 0;
#X connect 20 4 29 0;
#X connect 20 5 24 0;
#X connect 20 6 30 0;
#X connect 20 7 25 0;
#X connect 20 8 31 0;
#X connect 20 9 26 0;
#X connect 36 0 13 0;
#X connect 37 0 13 0;
#X connect 38 0 13 0;
#X connect 39 0 13 0;
#X connect 40 0 13 0;
